<?xml version="1.0" standalone="no"?>
<!DOCTYPE svg PUBLIC "-//W3C//DTD SVG 20010904//EN"
 "http://www.w3.org/TR/2001/REC-SVG-20010904/DTD/svg10.dtd">
<svg version="1.0" xmlns="http://www.w3.org/2000/svg"
 width="500.000000pt" height="500.000000pt" viewBox="0 0 500.000000 500.000000"
 preserveAspectRatio="xMidYMid meet">
<metadata>
Created by potrace 1.14, written by Peter Selinger 2001-2017
</metadata>
<g transform="translate(0.000000,500.000000) scale(0.100000,-0.100000)"
fill="#000000" stroke="none">
<path d="M3170 4434 c-138 -26 -187 -40 -266 -79 -220 -107 -344 -298 -405
-627 -21 -109 -22 -148 -26 -1008 -5 -938 -1 -1078 37 -1225 71 -280 269 -487
540 -565 106 -30 358 -39 486 -16 356 62 561 259 631 606 11 57 16 177 20 493
l5 417 -351 0 -350 0 -3 -377 -3 -378 -25 -49 c-34 -68 -68 -91 -135 -91 -67
0 -101 23 -135 91 l-25 49 0 1000 0 1000 22 48 c18 39 31 52 69 69 87 38 169
11 209 -68 19 -36 20 -62 23 -366 l3 -328 345 0 346 0 -5 383 c-4 350 -6 389
-26 462 -72 273 -263 459 -546 536 -63 17 -115 22 -245 24 -91 2 -176 1 -190
-1z"/>
<path d="M890 2670 l0 -1750 705 0 705 0 0 300 0 300 -360 0 -360 0 0 1450 0
1450 -345 0 -345 0 0 -1750z"/>
</g>
</svg>
